<?xml version="1.0" encoding="iso-8859-1"?>
<!-- Generator: Adobe Illustrator 19.0.0, SVG Export Plug-In . SVG Version: 6.00 Build 0)  -->
<svg version="1.1" id="Capa_1" xmlns="http://www.w3.org/2000/svg" xmlns:xlink="http://www.w3.org/1999/xlink" x="0px" y="0px"
	 viewBox="0 0 480 480" style="enable-background:new 0 0 480 480;" xml:space="preserve">
<path style="fill:#E6E7E8;" d="M240,8C111.87,8,8,111.87,8,240s103.87,232,232,232s232-103.87,232-232S368.13,8,240,8z"/>
<g>
	<path style="fill:#414042;" d="M240,480C107.452,480,0,372.548,0,240S107.452,0,240,0s240,107.452,240,240
		C479.85,372.486,372.486,479.85,240,480z M240,16C116.288,16,16,116.288,16,240s100.288,224,224,224s224-100.288,224-224
		C463.859,116.347,363.653,16.141,240,16z"/>
	<path style="fill:#414042;" d="M336,248H144c-4.418,0-8-3.582-8-8s3.582-8,8-8h192c4.418,0,8,3.582,8,8S340.418,248,336,248z"/>
	<path style="fill:#414042;" d="M336,328H144c-4.418,0-8-3.582-8-8s3.582-8,8-8h192c4.418,0,8,3.582,8,8S340.418,328,336,328z"/>
	<path style="fill:#414042;" d="M336,168H144c-4.418,0-8-3.582-8-8s3.582-8,8-8h192c4.418,0,8,3.582,8,8S340.418,168,336,168z"/>
</g>
<g>
</g>
<g>
</g>
<g>
</g>
<g>
</g>
<g>
</g>
<g>
</g>
<g>
</g>
<g>
</g>
<g>
</g>
<g>
</g>
<g>
</g>
<g>
</g>
<g>
</g>
<g>
</g>
<g>
</g>
</svg>
